<?xml version="1.0" encoding="UTF-8"?>
<svg xmlns="http://www.w3.org/2000/svg" xmlns:xlink="http://www.w3.org/1999/xlink" width="367.200012pt" height="192pt" viewBox="0 0 367.200012 192" version="1.1">
<defs>
<clipPath id="clip1">
  <path d="M 274 38 L 367.199219 38 L 367.199219 124 L 274 124 Z M 274 38 "/>
</clipPath>
<clipPath id="clip2">
  <path d="M 208 94 L 367.199219 94 L 367.199219 192 L 208 192 Z M 208 94 "/>
</clipPath>
<clipPath id="clip3">
  <path d="M 267 87 L 367.199219 87 L 367.199219 131 L 267 131 Z M 267 87 "/>
</clipPath>
</defs>
<g id="surface1">
<path style="fill:none;stroke-width:12;stroke-linecap:round;stroke-linejoin:miter;stroke:rgb(0%,0%,0%);stroke-opacity:1;stroke-miterlimit:10;" d="M 34.535156 -59.457031 L 77.058594 -172.953125 " transform="matrix(1,0,0,-1,0,0)"/>
<path style="fill:none;stroke-width:11.5974;stroke-linecap:round;stroke-linejoin:round;stroke:rgb(0%,0%,0%);stroke-opacity:1;stroke-miterlimit:10;" d="M 78.421875 -171.984375 L 135.617188 -15.78125 " transform="matrix(1,0,0,-1,0,0)"/>
<path style="fill:none;stroke-width:11.1447;stroke-linecap:round;stroke-linejoin:miter;stroke:rgb(0%,0%,0%);stroke-opacity:1;stroke-miterlimit:10;" d="M 136.019531 -13.265625 L 153.011719 -50.863281 " transform="matrix(1,0,0,-1,0,0)"/>
<path style="fill:none;stroke-width:8;stroke-linecap:round;stroke-linejoin:round;stroke:rgb(0%,0%,0%);stroke-opacity:1;stroke-miterlimit:10;" d="M 153.648438 -52.507813 L 358.609375 -52.507813 " transform="matrix(1,0,0,-1,0,0)"/>
<path style="fill:none;stroke-width:11.1405;stroke-linecap:round;stroke-linejoin:miter;stroke:rgb(0%,0%,0%);stroke-opacity:1;stroke-miterlimit:10;" d="M 33.902344 -60.253906 L 5.570313 -116.0625 " transform="matrix(1,0,0,-1,0,0)"/>
<path style="fill:none;stroke-width:12;stroke-linecap:round;stroke-linejoin:round;stroke:rgb(0%,0%,0%);stroke-opacity:1;stroke-miterlimit:10;" d="M 165.828125 -6.402344 L 165.828125 -176.84375 " transform="matrix(1,0,0,-1,0,0)"/>
<path style="fill:none;stroke-width:7.79096;stroke-linecap:round;stroke-linejoin:round;stroke:rgb(0%,0%,0%);stroke-opacity:1;stroke-miterlimit:10;" d="M 242.304688 -80.332031 C 165.722656 -121.980469 165.722656 -120.898438 165.722656 -120.898438 L 249.027344 -177.023438 " transform="matrix(1,0,0,-1,0,0)"/>
<path style="fill:none;stroke-width:0.781431;stroke-linecap:round;stroke-linejoin:round;stroke:rgb(0.392151%,0.392151%,0.392151%);stroke-opacity:1;stroke-miterlimit:10;" d="M 64.124315 177.285504 L 204.63609 177.285417 L 204.63754 241.740285 L 64.121154 241.74147 Z M 64.124315 177.285504 " transform="matrix(1,-0.619804,0.642748,0.954776,0,0)"/>
<path style=" stroke:none;fill-rule:evenodd;fill:rgb(100%,100%,100%);fill-opacity:1;" d="M 211.257813 132.71875 L 174.445313 78.035156 L 268.941406 19.472656 L 306.203125 74.820313 L 276.769531 127.089844 L 211.257813 132.71875 "/>
<path style="fill:none;stroke-width:0.979818;stroke-linecap:butt;stroke-linejoin:miter;stroke:rgb(0%,0%,0%);stroke-opacity:1;stroke-miterlimit:10;" d="M 86.371527 195.244036 L 86.430865 137.599545 L 181.530797 136.655519 L 181.472284 195.001017 L 135.559083 220.764816 Z M 86.371527 195.244036 " transform="matrix(1,-0.606389,0.639642,0.948011,0,0)"/>
<path style=" stroke:none;fill-rule:nonzero;fill:rgb(0%,0%,0%);fill-opacity:1;" d="M 205.675781 86.585938 L 204.199219 84.394531 L 200.65625 64.964844 L 203.15625 63.445313 L 220.253906 74.660156 L 221.730469 76.847656 Z M 206.375 83.078125 L 217.527344 76.3125 L 203.472656 67.105469 L 206.375 83.078125 "/>
<path style=" stroke:none;fill-rule:nonzero;fill:rgb(0%,0%,0%);fill-opacity:1;" d="M 223.402344 75.835938 L 223.886719 66.191406 L 214.878906 62.902344 L 217.691406 61.199219 L 224.835938 63.832031 L 224.949219 56.796875 L 227.257813 55.398438 L 227.136719 64.652344 L 236.320313 68 L 233.507813 69.707031 L 226.148438 67.003906 L 225.78125 74.390625 L 223.402344 75.835938 "/>
<path style=" stroke:none;fill-rule:nonzero;fill:rgb(0%,0%,0%);fill-opacity:1;" d="M 242.46875 69.207031 L 234.609375 44.355469 L 235.859375 43.597656 L 243.71875 68.449219 L 242.46875 69.207031 "/>
<path style=" stroke:none;fill-rule:nonzero;fill:rgb(0%,0%,0%);fill-opacity:1;" d="M 250.957031 59.125 L 249.480469 56.9375 L 245.9375 37.503906 L 248.4375 35.988281 L 265.535156 47.203125 L 267.011719 49.390625 Z M 251.65625 55.617188 L 262.808594 48.855469 L 248.753906 39.644531 L 251.65625 55.617188 "/>
<path style=" stroke:none;fill-rule:nonzero;fill:rgb(0%,0%,0%);fill-opacity:1;" d="M 275.808594 44.054688 C 275.214844 44.695313 274.648438 45.175781 274.109375 45.503906 C 272.910156 46.230469 271.742188 46.460938 270.609375 46.191406 C 269.480469 45.921875 268.507813 45.183594 267.695313 43.976563 L 262.605469 36.429688 L 260.96875 37.421875 L 259.789063 35.671875 L 261.421875 34.679688 L 259.851563 32.351563 L 262.066406 30.691406 L 263.789063 33.246094 L 267.203125 31.175781 L 268.382813 32.925781 L 264.972656 34.996094 L 269.773438 42.113281 C 270.910156 43.792969 272.210938 44.1875 273.6875 43.292969 C 274 43.105469 274.34375 42.820313 274.722656 42.445313 L 275.808594 44.054688 "/>
<path style=" stroke:none;fill-rule:nonzero;fill:rgb(0%,0%,0%);fill-opacity:1;" d="M 230.597656 103.144531 L 225.648438 95.8125 C 224.085938 93.496094 223.714844 91.394531 224.527344 89.511719 C 225.246094 87.855469 226.648438 86.390625 228.738281 85.125 C 230.769531 83.894531 232.609375 83.304688 234.257813 83.355469 C 235.910156 83.40625 237.179688 84.09375 238.074219 85.417969 C 239.199219 87.085938 239.363281 88.933594 238.566406 90.964844 C 237.765625 92.996094 236.195313 94.722656 233.851563 96.144531 C 232.96875 96.679688 231.976563 97.132813 230.875 97.507813 L 233.492188 101.386719 Z M 229.710938 95.78125 C 230.949219 95.691406 232.140625 95.300781 233.289063 94.605469 C 234.691406 93.753906 235.59375 92.652344 235.992188 91.300781 C 236.390625 89.945313 236.1875 88.671875 235.382813 87.480469 C 234.738281 86.523438 233.855469 85.972656 232.734375 85.824219 C 231.613281 85.679688 230.460938 85.964844 229.273438 86.683594 C 227.988281 87.464844 227.234375 88.425781 227.011719 89.570313 C 226.789063 90.714844 227.121094 91.945313 228.011719 93.261719 L 229.710938 95.78125 "/>
<path style=" stroke:none;fill-rule:nonzero;fill:rgb(0%,0%,0%);fill-opacity:1;" d="M 247.386719 73.324219 C 245.226563 73.804688 243.585938 74.019531 242.464844 73.976563 C 241.34375 73.933594 240.589844 73.625 240.207031 73.054688 C 239.667969 72.253906 239.84375 71.269531 240.734375 70.09375 C 241.628906 68.921875 243.132813 67.691406 245.253906 66.40625 C 246.597656 65.589844 247.898438 64.929688 249.152344 64.421875 L 250.179688 65.945313 C 248.753906 66.417969 247.320313 67.089844 245.878906 67.964844 C 244.792969 68.621094 243.984375 69.242188 243.453125 69.828125 C 242.917969 70.414063 242.753906 70.859375 242.960938 71.160156 C 243.269531 71.621094 244.5 71.652344 246.644531 71.257813 L 248.347656 70.933594 L 250.332031 70.59375 C 252.746094 70.171875 254.648438 70.105469 256.046875 70.398438 C 257.445313 70.6875 258.507813 71.378906 259.242188 72.460938 C 260.191406 73.867188 260.300781 75.429688 259.570313 77.148438 C 258.839844 78.863281 257.425781 80.359375 255.324219 81.632813 C 253.273438 82.878906 251.269531 83.472656 249.3125 83.414063 C 247.355469 83.355469 245.929688 82.65625 245.023438 81.316406 C 243.546875 79.125 244.332031 76.460938 247.386719 73.324219 Z M 250.121094 72.921875 C 247.523438 75.460938 246.847656 77.652344 248.097656 79.507813 C 248.722656 80.429688 249.644531 80.957031 250.867188 81.089844 C 252.085938 81.222656 253.296875 80.925781 254.5 80.195313 C 255.648438 79.5 256.390625 78.59375 256.71875 77.484375 C 257.046875 76.371094 256.882813 75.332031 256.230469 74.367188 C 255.671875 73.535156 254.945313 73.015625 254.050781 72.804688 C 253.160156 72.59375 251.851563 72.632813 250.121094 72.921875 "/>
<path style=" stroke:none;fill-rule:nonzero;fill:rgb(0%,0%,0%);fill-opacity:1;" d="M 245.628906 115.71875 L 246.710938 112.066406 C 243.265625 111.289063 240.648438 109.582031 238.867188 106.9375 C 236.894531 104.015625 236.425781 100.78125 237.464844 97.242188 C 238.503906 93.703125 240.742188 90.890625 244.183594 88.800781 C 247.242188 86.949219 250.582031 86.164063 254.207031 86.445313 L 255.292969 82.796875 L 257.03125 83.066406 L 255.972656 86.71875 C 259.417969 87.496094 262.03125 89.203125 263.808594 91.835938 C 265.78125 94.757813 266.246094 97.992188 265.203125 101.535156 C 264.160156 105.078125 261.921875 107.890625 258.492188 109.972656 C 255.382813 111.859375 252.042969 112.648438 248.476563 112.339844 L 247.394531 115.992188 Z M 247.191406 110.433594 L 253.730469 88.082031 C 250.601563 87.867188 247.730469 88.554688 245.109375 90.140625 C 242.097656 91.96875 240.136719 94.425781 239.230469 97.515625 C 238.324219 100.605469 238.734375 103.425781 240.457031 105.976563 C 242 108.265625 244.246094 109.75 247.191406 110.433594 Z M 248.929688 110.703125 C 251.992188 110.957031 254.878906 110.265625 257.582031 108.625 C 260.585938 106.804688 262.539063 104.347656 263.445313 101.257813 C 264.351563 98.171875 263.941406 95.347656 262.21875 92.796875 C 260.695313 90.535156 258.453125 89.054688 255.496094 88.355469 L 248.929688 110.703125 "/>
<path style=" stroke:none;fill-rule:nonzero;fill:rgb(0%,0%,0%);fill-opacity:1;" d="M 245.460938 128.234375 L 247.894531 131.84375 C 241.617188 131.984375 235.644531 130.628906 229.980469 127.765625 C 224.316406 124.90625 219.777344 120.945313 216.363281 115.886719 C 212.960938 110.84375 211.078125 105.285156 210.710938 99.210938 C 210.347656 93.132813 211.550781 87.425781 214.320313 82.078125 L 216.757813 85.691406 C 215.585938 90.386719 215.445313 94.761719 216.332031 98.8125 C 217.21875 102.859375 219.292969 107.300781 222.550781 112.132813 C 225.824219 116.980469 229.210938 120.632813 232.71875 123.097656 C 236.222656 125.558594 240.472656 127.269531 245.460938 128.234375 "/>
<path style=" stroke:none;fill-rule:nonzero;fill:rgb(0%,0%,0%);fill-opacity:1;" d="M 259.394531 60.710938 L 256.90625 57.023438 C 263.757813 56.613281 270.207031 57.792969 276.25 60.5625 C 282.292969 63.328125 287.054688 67.289063 290.53125 72.441406 C 294.019531 77.613281 295.820313 83.382813 295.9375 89.742188 C 296.054688 96.105469 294.480469 102.148438 291.214844 107.875 L 288.726563 104.1875 C 290.21875 99.207031 290.566406 94.609375 289.773438 90.402344 C 288.984375 86.195313 286.917969 81.617188 283.574219 76.660156 C 280.242188 71.726563 276.726563 68.03125 273.023438 65.574219 C 269.320313 63.121094 264.777344 61.5 259.394531 60.710938 "/>
<path style=" stroke:none;fill-rule:nonzero;fill:rgb(0%,0%,0%);fill-opacity:1;" d="M 257.117188 136.410156 L 255.691406 134.300781 L 282.632813 117.964844 L 284.058594 120.074219 Z M 253.207031 127.667969 L 251.796875 128.523438 C 248.964844 123.851563 249.414063 120.386719 253.144531 118.121094 C 254.738281 117.15625 257.769531 116.359375 262.242188 115.730469 L 264.820313 115.367188 C 268.929688 114.777344 271.449219 114.203125 272.375 113.640625 C 274.558594 112.316406 274.796875 110.007813 273.089844 106.71875 L 274.480469 105.878906 C 277.234375 110.59375 276.761719 114.074219 273.058594 116.320313 C 271.800781 117.085938 269.378906 117.722656 265.792969 118.234375 L 264.058594 118.472656 L 261.421875 118.839844 C 257.566406 119.398438 255.074219 120.015625 253.953125 120.695313 C 252.84375 121.367188 252.222656 122.371094 252.085938 123.707031 C 251.953125 125.039063 252.324219 126.359375 253.207031 127.667969 "/>
<path style=" stroke:none;fill-rule:evenodd;fill:rgb(100%,100%,100%);fill-opacity:1;" d="M 322.367188 48.546875 L 284.300781 114.386719 L 359.539063 103.640625 L 322.367188 48.546875 "/>
<g clip-path="url(#clip1)" clip-rule="nonzero">
<path style="fill:none;stroke-width:0.603517;stroke-linecap:butt;stroke-linejoin:miter;stroke:rgb(0%,0%,0%);stroke-opacity:1;stroke-miterlimit:10;" d="M 205.523272 182.670799 L 146.984232 214.677193 L 205.522576 240.785449 Z M 205.523272 182.670799 " transform="matrix(1,-0.606389,0.639642,0.948011,0,0)"/>
</g>
<path style=" stroke:none;fill-rule:evenodd;fill:rgb(100%,100%,100%);fill-opacity:1;" d="M 219.113281 191.046875 L 264.050781 128.351563 L 276.546875 127.523438 L 283.457031 114.898438 L 359.539063 103.640625 L 219.113281 191.046875 "/>
<g clip-path="url(#clip2)" clip-rule="nonzero">
<path style="fill:none;stroke-width:0.603517;stroke-linecap:butt;stroke-linejoin:miter;stroke:rgb(0%,0%,0%);stroke-opacity:1;stroke-miterlimit:10;" d="M 64.017735 242.472424 L 125.927204 215.93888 L 135.191592 220.991246 L 146.140445 214.677251 L 205.522576 240.785449 Z M 64.017735 242.472424 " transform="matrix(1,-0.606389,0.639642,0.948011,0,0)"/>
</g>
<path style=" stroke:none;fill-rule:evenodd;fill:rgb(100%,100%,100%);fill-opacity:1;" d="M 181.820313 134.894531 L 263.78125 127.953125 L 219.265625 190.390625 L 181.820313 134.894531 "/>
<path style="fill:none;stroke-width:0.603517;stroke-linecap:butt;stroke-linejoin:miter;stroke:rgb(0%,0%,0%);stroke-opacity:1;stroke-miterlimit:10;" d="M 64.439368 183.510376 L 125.926709 215.518276 L 64.440069 242.050328 Z M 64.439368 183.510376 " transform="matrix(1,-0.606389,0.639642,0.948011,0,0)"/>
<g clip-path="url(#clip3)" clip-rule="nonzero">
<path style="fill:none;stroke-width:0.979818;stroke-linecap:butt;stroke-linejoin:miter;stroke:rgb(0%,0%,0%);stroke-opacity:1;stroke-miterlimit:10;" d="M 146.869202 215.028023 L 206.029742 240.450579 " transform="matrix(1,-0.606389,0.639642,0.948011,0,0)"/>
</g>
<path style="fill:none;stroke-width:0.979818;stroke-linecap:butt;stroke-linejoin:miter;stroke:rgb(0%,0%,0%);stroke-opacity:1;stroke-miterlimit:10;" d="M 126.253721 215.23299 L 64.378985 241.858799 " transform="matrix(1,-0.606389,0.639642,0.948011,0,0)"/>
<path style="fill:none;stroke-width:0.982104;stroke-linecap:butt;stroke-linejoin:miter;stroke:rgb(0%,0%,0%);stroke-opacity:1;stroke-miterlimit:10;" d="M 64.44214 183.512149 L 135.893839 220.760556 L 205.423385 182.11245 " transform="matrix(1,-0.606389,0.639642,0.948011,0,0)"/>
<path style="fill:none;stroke-width:9.6;stroke-linecap:round;stroke-linejoin:round;stroke:rgb(0%,0%,0%);stroke-opacity:1;stroke-miterlimit:10;" d="M 275.628906 -174.097656 C 297.496094 -176.265625 338.140625 -177.839844 352.769531 -170.363281 C 369.222656 -161.957031 364.035156 -130.949219 334.515625 -123.828125 L 296.238281 -115.085938 " transform="matrix(1,0,0,-1,0,0)"/>
<path style="fill:none;stroke-width:9.6;stroke-linecap:round;stroke-linejoin:round;stroke:rgb(0%,0%,0%);stroke-opacity:1;stroke-miterlimit:10;" d="M 301.640625 -116.199219 C 273.320313 -108.652344 263.65625 -90.953125 278.136719 -82.519531 C 291.433594 -74.773438 322.054688 -70.589844 353.207031 -69.160156 " transform="matrix(1,0,0,-1,0,0)"/>
</g>
</svg>
